<?xml version="1.0" encoding="utf-8"?>
<!-- Generator: Adobe Illustrator 21.1.0, SVG Export Plug-In . SVG Version: 6.00 Build 0)  -->
<svg version="1.1" id="Ebene_1" xmlns="http://www.w3.org/2000/svg" xmlns:xlink="http://www.w3.org/1999/xlink" x="0px" y="0px"
	 width="32px" height="32px" viewBox="0 0 32 32" style="enable-background:new 0 0 32 32;" xml:space="preserve">
<style type="text/css">
	.st0{fill:#F08200;}
</style>
<path class="st0" d="M14.4,3l-0.2,0.8C13.9,5.1,12,7.3,10,10.1s-4,6.1-4,10.3c0,2,0.6,4.1,2.1,5.8S12,29,15.3,29c0.1,0,0.3,0,0.4,0
	c0.1,0,0.2,0,0.3,0c0.3,0,0.6,0,0.9-0.1c0.1,0,0.2,0,0.3,0c3.3-0.3,5.6-1.3,6.9-2.8C25.7,24.3,26,22,26,20c0-4.5-2.6-8.6-5.1-11.7
	s-5-5.1-5-5.1L15.7,3h-0.3h-0.2H14.4z M15.5,5.5c0.8,0.7,2.2,2,3.9,4.1C21.7,12.5,24,16.3,24,20c0,1.8-0.3,3.5-1.4,4.7
	c-0.2,0.3-0.5,0.5-0.9,0.8c0.5-1.6,0.4-3.3,0.1-5.1c-0.4-2-1.2-4-1.9-5.7s-1.4-2.8-1.9-3.4L17.6,11h-0.5H17h-1.3l0.4,1.3
	c1,3.4,0.5,5.7-0.1,6.4c-0.3,0.3-0.4,0.4-0.7,0.3s-0.8-0.5-1.3-1.4l-0.8-1.4l-0.9,1.3c-1.9,2.5-2.6,5.3-2,7.6
	c0.1,0.2,0.1,0.4,0.2,0.6c-0.3-0.2-0.6-0.5-0.8-0.7C8.5,23.6,8,22,8,20.4c0-3.6,1.7-6.6,3.6-9.2C13.1,9.1,14.6,7.4,15.5,5.5z
	 M18.6,17.2c0.5,1.2,1,2.4,1.2,3.6c0.4,1.8,0.4,3.4-0.2,4.5c-0.4,0.8-1,1.4-2.2,1.6c-0.1,0-0.3,0-0.4,0.1c-0.3,0-0.7,0.1-1,0.1
	c-0.1,0-0.2,0-0.3,0c-2.2-0.1-3.2-1-3.6-2.5c-0.3-1.2,0.1-2.9,1-4.6c0.4,0.5,0.9,0.8,1.5,1c1,0.3,2.2-0.1,2.8-0.9
	C18.1,19.3,18.4,18.4,18.6,17.2z"/>
</svg>
