<?xml version="1.0" encoding="utf-8"?>
<!-- Generator: Adobe Illustrator 21.1.0, SVG Export Plug-In . SVG Version: 6.00 Build 0)  -->
<svg version="1.1" id="Ebene_1" xmlns="http://www.w3.org/2000/svg" xmlns:xlink="http://www.w3.org/1999/xlink" x="0px" y="0px"
	 width="32px" height="32px" viewBox="0 0 32 32" style="enable-background:new 0 0 32 32;" xml:space="preserve">
<style type="text/css">
	.st0{fill:#327800;}
</style>
<path class="st0" d="M14,6v2h3v2h2V8h3V6H14z M11.5,11l-0.3,0.4L9.4,14H7H6v1v7v1h1h1.6l2.7,2.7l0.3,0.3H12h9h0.4l0.3-0.3l4-4
	l0.3-0.3V21v-4h1v-2h-1v-3v-1h-1H12H11.5z M28,12v8h2v-8H28z M12.6,13H24v7.6L20.6,24h-8.1l-2.7-2.7L9.4,21H9H8v-5h2h0.5l0.3-0.4
	L12.6,13z M2,15v6h2v-2h1v-2H4v-2H2z M17,15l-2,4l2,0.9V23l2-4l-2-0.9V15z"/>
</svg>
