<?xml version="1.0" encoding="utf-8"?>
<!-- Generator: Adobe Illustrator 21.1.0, SVG Export Plug-In . SVG Version: 6.00 Build 0)  -->
<svg version="1.1" id="Ebene_1" xmlns="http://www.w3.org/2000/svg" xmlns:xlink="http://www.w3.org/1999/xlink" x="0px" y="0px"
	 viewBox="0 0 20 20" style="enable-background:new 0 0 20 20;" xml:space="preserve">

<rect width="16" height="2"/>

<path d="M15.9,8c-2.3,0-4.1,1.9-4.1,4.1c0,0.9,0.3,1.7,0.7,2.3l-2.8,2.8l1.1,1.1l2.8-2.8c0.7,0.5,1.5,0.7,2.3,0.7
	c2.3,0,4.1-1.9,4.1-4.1S18.1,8,15.9,8z M15.9,14.8c-1.5,0-2.6-1.2-2.6-2.6s1.2-2.6,2.6-2.6c1.5,0,2.6,1.2,2.6,2.6
	S17.3,14.8,15.9,14.8z"/>
<rect y="4" width="16" height="2"/>
<path d="M11.5,8H0v2h10.3C10.6,9.3,11,8.6,11.5,8z"/>
</svg>
