<?xml version="1.0" encoding="utf-8"?>
<!-- Generator: Adobe Illustrator 21.1.0, SVG Export Plug-In . SVG Version: 6.00 Build 0)  -->
<svg id="st6" version="1.1" id="Ebene_1" xmlns="http://www.w3.org/2000/svg" xmlns:xlink="http://www.w3.org/1999/xlink" x="0px" y="0px"
	  viewBox="0 0 32 32" style="enable-background:new 0 0 32 32;" xml:space="preserve">

<style type="text/css">
	#st6{fill:#002387;}
</style>

<path  d="M4,6v1v14v1h1h22h1v-1V7V6h-1H5H4z M6,8h20v12H6V8z M8,10v3h4v-3H8z M14,10v3h4v-3H14z M20,10v3h4v-3H20z M8,15
	v3h4v-3H8z M14,15v3h4v-3H14z M20,15v3h4v-3H20z M10,24v2h12v-2H10z"/>
</svg>
