<?xml version="1.0" encoding="utf-8"?>
<!-- Generator: Adobe Illustrator 21.1.0, SVG Export Plug-In . SVG Version: 6.00 Build 0)  -->
<svg version="1.1" id="Ebene_1" xmlns="http://www.w3.org/2000/svg" xmlns:xlink="http://www.w3.org/1999/xlink" x="0px" y="0px"
	 width="32px" height="32px" viewBox="0 0 32 32" enable-background="new 0 0 32 32" xml:space="preserve">
<path fill="#FFC800" d="M16,2.6l-0.7,0.7c0,0-1.8,1.7-3.6,4S8,12.7,8,15.8c0,2.2,0.9,4,2.4,5.3S13.8,23,16,23c2.1,0,4.1-0.6,5.6-1.9
	S24,18,24,15.8c0-2.8-1.9-5.8-3.7-8.2s-3.6-4.3-3.6-4.3L16,2.6z M16,5.5c0.5,0.5,1.4,1.4,2.7,3.3c1.7,2.3,3.3,5.2,3.3,7
	c0,1.7-0.6,2.9-1.7,3.8c-0.1,0.1-0.2,0.2-0.3,0.3c0.1-0.3,0.1-0.6,0.1-1c0-5-2.8-8-2.8-8L15.5,9l0.1,2.7c0,0,0,1-0.1,1.9
	c0,0.4-0.1,0.8-0.2,1c-0.1-0.1-0.1-0.1-0.3-0.2c-0.2-0.2-0.4-0.5-0.4-0.5l-1-1.6L12.9,14c0,0-1,2.1-1,4.9c0,0.3,0.1,0.6,0.1,0.9
	c-0.1-0.1-0.2-0.2-0.3-0.3c-1.1-0.9-1.7-2.1-1.7-3.8c0-2.2,1.6-5.1,3.3-7.3C14.6,6.8,15.5,6,16,5.5z M17.3,14.8
	c0.4,1.1,0.8,2.4,0.8,4.2c0,1-0.7,1.9-1.7,2.1c-0.1,0-0.3,0-0.4,0s-0.3,0-0.4,0c-1-0.2-1.7-1.1-1.7-2.1s0.2-1.9,0.3-2.6
	c0.3,0.2,0.7,0.4,1.3,0.4c0.4,0,0.8-0.2,1.1-0.5c0.3-0.3,0.4-0.5,0.5-0.8C17.2,15.2,17.2,15,17.3,14.8z M7,24v3v1h1h16h1v-1v-3h-2v2
	h-2v-2h-2v2h-2v-2h-2v2h-2v-2h-2v2H9v-2H7z"/>
</svg>
