<?xml version="1.0" encoding="utf-8"?>
<!-- Generator: Adobe Illustrator 21.1.0, SVG Export Plug-In . SVG Version: 6.00 Build 0)  -->
<svg version="1.1" id="Ebene_1" xmlns="http://www.w3.org/2000/svg" xmlns:xlink="http://www.w3.org/1999/xlink" x="0px" y="0px"
	 width="32px" height="32px" viewBox="0 0 32 32" style="enable-background:new 0 0 32 32;" xml:space="preserve">
<style type="text/css">
	.st0{fill:#C80041;}
</style>
<path class="st0" d="M2,6v1v12.7L0.5,22l0,0C0.2,22.5,0,23,0,23.5C0,24.9,1.1,26,2.5,26H19h11c0.5,0,1.1-0.2,1.4-0.6S32,24.5,32,24
	V14c0-0.5-0.2-1.1-0.6-1.4S30.5,12,30,12h-6V7V6h-1H3H2z M4,8h18v4h-6c-0.5,0-1.1,0.2-1.4,0.6S14,13.5,14,14v5H4V8z M16,14h14v10H19
	h-3V14z M3.6,21H14v3H2.5C2.3,24,2,23.7,2,23.5c0-0.1,0-0.2,0.1-0.3L3.6,21z M21,21v2h4v-2H21z"/>
</svg>
