<?xml version="1.0" encoding="utf-8"?>
<!-- Generator: Adobe Illustrator 21.1.0, SVG Export Plug-In . SVG Version: 6.00 Build 0)  -->
<svg version="1.1" id="Ebene_1" xmlns="http://www.w3.org/2000/svg" xmlns:xlink="http://www.w3.org/1999/xlink" x="0px" y="0px"
	 width="32px" height="32px" viewBox="0 0 32 32" style="enable-background:new 0 0 32 32;" xml:space="preserve">
<style type="text/css">
	.st0{fill:#0069AF;}
</style>
<path class="st0" d="M13.5,5c-1.4,0-2.5,0.5-3.4,1.1C9.2,6.8,8.6,7.6,7.9,8.4s-1.2,1.4-1.8,1.9C5.5,10.7,4.9,11,4,11v2
	c1.3,0,2.4-0.5,3.3-1.1s1.5-1.5,2.2-2.3c0.6-0.7,1.2-1.4,1.8-1.9C11.9,7.3,12.6,7,13.5,7C14.9,7,16,8.1,16,9.5S14.9,12,13.5,12
	c-0.7,0-1.3-0.3-1.8-0.8l-1.4,1.4c0.8,0.8,2,1.3,3.2,1.3c2,0,3.6-1.3,4.3-3c1.8-0.2,3-1,3.8-1.7C22.6,8.5,23.1,8,24,8
	c1.1,0,2,0.8,2,2s-0.8,2-2,2c-0.5,0-1.1-0.3-1.6-0.7L21,12.7c0.8,0.8,1.9,1.3,3,1.3c2.2,0,4-1.7,4-4s-1.8-4-4-4
	c-1.7,0-2.8,1-3.7,1.7c-0.7,0.6-1.3,1-2.4,1.2C17.7,6.7,15.8,5,13.5,5z M10,16c-1.6,0-2.7,1-3.6,1.7S4.8,19,4,19v2
	c1.6,0,2.7-1,3.6-1.7S9.2,18,10,18s1.5,0.5,2.4,1.3s2,1.7,3.6,1.7s2.7-1,3.6-1.7S21.2,18,22,18s1.5,0.5,2.4,1.3s2,1.7,3.6,1.7v-2
	c-0.8,0-1.5-0.5-2.4-1.3S23.6,16,22,16s-2.7,1-3.6,1.7S16.8,19,16,19s-1.5-0.5-2.4-1.3S11.6,16,10,16z M10,22c-1.6,0-2.7,1-3.6,1.7
	S4.8,25,4,25v2c1.6,0,2.7-1,3.6-1.7S9.2,24,10,24s1.5,0.5,2.4,1.3s2,1.7,3.6,1.7s2.7-1,3.6-1.7S21.2,24,22,24s1.5,0.5,2.4,1.3
	s2,1.7,3.6,1.7v-2c-0.8,0-1.5-0.5-2.4-1.3S23.6,22,22,22s-2.7,1-3.6,1.7S16.8,25,16,25s-1.5-0.5-2.4-1.3S11.6,22,10,22z"/>
</svg>
